# xmcd
# 
# Track frame offsets:
#     150
#     12934
#     29224
#     46166
#     70254
#     91779
#     113964
#     130544
#     146154
#     166604
#     185849
#     207089
#     223776
#     254756
#     273391
#     278471
# 
# Disc length: 4093
# 
# Revision: 1
# Processed by: cddbd v1.5.2PL0 Copyright (c) Steve Scherf et al.
# Submitted via: fre:ac v1.0.27
# 
DISCID=ed0ffb10
DTITLE=Nina Simone - Young, Gifted And Black
DYEAR=2001
DGENRE=Soul
TTITLE0=Backlash Blues
TTITLE1=Do What You Gotta Do
TTITLE2=Please Don`t Let Me Be Misunderstood
TTITLE3=For A While
TTITLE4=Four Women
TTITLE5=I Loves You, Porgy
TTITLE6=I Sing Just To Know That I`m Alive
TTITLE7=I Want A Little Sugar In My Bowl
TTITLE8=Mississippi Goddam
TTITLE9=My Baby Just Cares For Me
TTITLE10=Pirate Jenny
TTITLE11=See Line Woman
TTITLE12=The House Of The Rising Sun
TTITLE13=The Other Woman
TTITLE14=You Took My Teeth
TTITLE15=Young, Gifted And Black
EXTD=
EXTT0=
EXTT1=
EXTT2=
EXTT3=
EXTT4=
EXTT5=
EXTT6=
EXTT7=
EXTT8=
EXTT9=
EXTT10=
EXTT11=
EXTT12=
EXTT13=
EXTT14=
EXTT15=
PLAYORDER=
